<svg xmlns="http://www.w3.org/2000/svg" width="125" height="64" viewBox="0 0 125 64">
  <g fill="none">
    <path fill="#6B676F" d="M104.867654,1.26 C104.082548,0.525 102.624495,0 101.615074,0 L1.90668461,0 C0.897263348,0 0,0.735 0,1.785 L0,40.32 C0,41.16 0.897263348,42 1.90668461,42 L101.615074,42 C102.624495,42 104.082548,41.475 104.755496,40.74 L124.495289,22.26 C125.168237,21.63 125.168237,20.475 124.495289,19.74 L104.867654,1.26 Z"/>
    <path fill="#FFED00" d="M8.88981103,28.0442379 L20.8439734,14.5542751 L8.77808987,14.5542751 L8.77808987,6.65000001 L33.2450204,6.65000001 L33.2450204,13.0788104 L21.4025792,26.5687732 L33.9153473,26.5687732 L33.9153473,34.4730483 L8.88981103,34.4730483 L8.88981103,28.0442379 Z M37.3787028,12.4464684 L46.5398366,12.4464684 L46.5398366,27.0957249 C46.5398366,28.1496283 46.986721,28.8873606 48.2156536,28.8873606 C49.2211442,28.8873606 50.1149134,28.2550186 51.0086821,27.3065056 L51.0086821,12.4464684 L60.1698161,12.4464684 L60.1698161,34.4730483 L51.5672879,34.4730483 L51.0086821,32.154461 C49.5563076,33.6299257 47.0984424,35 44.528856,35 C39.2779622,35 37.3787028,32.2598513 37.3787028,26.8849442 L37.3787028,12.4464684 L37.3787028,12.4464684 Z M63.5214504,6.65000001 L72.6825844,6.65000001 L72.6825844,12.4464684 L78.1569205,12.4464684 L78.1569205,18.0321561 L72.6825844,18.0321561 L72.6825844,26.3579926 C72.6825844,27.6226766 73.2411902,28.1496283 74.2466804,28.1496283 C75.2521705,28.1496283 76.9279879,27.4118959 76.9279879,27.4118959 L79.6092951,32.5760223 C79.6092951,32.5760223 75.9224973,34.8946097 71.5653728,34.8946097 C65.9793156,34.8946097 63.6331714,32.3652416 63.6331714,26.5687732 L63.6331714,6.65000001 L63.5214504,6.65000001 Z M92.4572268,28.8873606 C94.4682071,28.8873606 95.4736978,26.7795539 95.4736978,23.4070632 C95.4736978,20.2453532 94.4682071,18.1375465 92.4572268,18.1375465 C90.446246,18.1375465 89.4407558,20.2453532 89.4407558,23.4070632 C89.3290348,26.7795539 90.334525,28.8873606 92.4572268,28.8873606 L92.4572268,28.8873606 Z M92.4572268,11.9195167 C99.3839375,11.9195167 104.634831,16.5566914 104.634831,23.3016729 C104.634831,30.4682156 99.7191013,35 92.4572268,35 C85.1953522,35 80.2796219,30.573606 80.2796219,23.3016729 C80.1679009,16.5566914 85.4187946,11.9195167 92.4572268,11.9195167 L92.4572268,11.9195167 Z"/>
    <path fill="#4B4B4B" d="M16.0167989,64 C11.8029061,64 9,61.0308726 9,56.9530199 C9,52.9315436 11.9554452,50 15.9977315,50 C18.7625029,50 20.878983,51.2966441 21.9658242,53.3261747 L19.1629181,54.5852349 C18.5336942,53.4953021 17.4277857,52.8751678 16.0358663,52.8751678 C13.6715102,52.8751678 12.2795908,54.6604027 12.2795908,56.934228 C12.2795908,59.3583893 13.8049819,61.1436242 16.1121359,61.1436242 C17.4849879,61.1436242 18.4955595,60.467114 19.1438507,59.4147651 L22.0230263,60.5234898 C20.9933873,62.5718119 18.8006376,64 16.0167989,64 Z M27.4595355,64 C24.7176545,64 22.7269737,61.7405063 22.7269737,58.7594938 C22.7269737,55.7784812 24.6237544,53.5 27.5346556,53.5 C28.9431561,53.5 30.0699565,53.9936711 30.6709167,54.7151899 L30.6709167,53.7848103 L33.6381579,53.7848103 L33.6381579,63.7531647 L30.7272568,63.7531647 L30.7272568,62.6898734 L30.7084767,62.6898734 C30.1262966,63.3924053 28.9431561,64 27.4595355,64 Z M28.3491127,61.55 C29.9161373,61.55 30.8223684,60.4663702 30.8223684,58.9343415 C30.8223684,57.4583631 29.9161373,56.3 28.3491127,56.3 C26.8009679,56.3 25.8947368,57.4583631 25.8947368,58.9343415 C25.8947368,60.4663702 26.7820881,61.55 28.3491127,61.55 Z M35.7688756,63.65 L35.7688756,55.4584416 C35.7688756,54.8935066 35.7688756,54.3285716 35.75,53.7636362 L38.6002096,53.7636362 L38.5813341,54.8746753 L38.6190852,54.8746753 C38.9777208,54.1214285 39.827121,53.5 41.1484102,53.5 C41.4126681,53.5 41.6391748,53.5188313 41.7335526,53.5376622 L41.7335526,56.3623376 C41.5259215,56.3058441 41.2427881,56.2681819 40.9785302,56.2681819 C39.487361,56.2681819 38.8267163,57.1344158 38.8267163,59.3000001 L38.8267163,63.65 L35.7688756,63.65 Z M54.7565788,53.15 C53.7536432,53.15 52.9967104,52.4915253 52.9967104,51.5661017 C52.9967104,50.6584747 53.7347198,50 54.7565788,50 C55.7595149,50 56.5164472,50.6584747 56.5164472,51.5661017 C56.5164472,52.4915253 55.7595149,53.15 54.7565788,53.15 Z M47.4471867,63.65 L47.4471867,56.1462708 L46.3092104,56.1462708 L46.3092104,53.7518648 L47.4471867,53.7518648 L47.4471867,52.9411603 C47.4471867,51.9419199 47.6490859,51.2631907 48.1630105,50.7541437 C48.7319988,50.1885358 49.631367,50 50.6959256,50 C51.356686,50 51.925674,50.0754145 52.2744089,50.1508286 L52.1642822,52.4321133 C52.0174464,52.3755524 51.7237748,52.3189915 51.448458,52.3189915 C50.7876976,52.3189915 50.4022541,52.5263814 50.4022541,53.1674033 L50.4022541,53.7518648 L52.2927632,53.7518648 L52.2927632,56.1462708 L50.4389631,56.1462708 L50.4389631,63.65 L47.4471867,63.65 Z M53.3486844,63.65 L53.3486844,53.85 L56.5164472,53.85 L56.5164472,63.65 L53.3486844,63.65 Z M58.6472053,63.65 L58.6472053,55.3539666 C58.6472053,54.8483396 58.6472053,54.3427121 58.6282896,53.8183578 L61.6359419,53.8183578 L61.6359419,54.7734317 C62.2412556,54.0805349 63.2438062,53.5 64.7003422,53.5 C67.0270164,53.5 68.4835528,55.0356088 68.4835528,57.5637454 L68.4835528,63.65 L65.4191521,63.65 L65.4191521,58.2191883 C65.4191521,57.0019373 64.7949226,56.0281366 63.5653793,56.0281366 C62.2790875,56.0281366 61.7116061,57.020664 61.7116061,57.9757379 L61.7116061,63.65 L58.6472053,63.65 Z M74.9759829,64 C72.2341016,64 70.2434212,61.7405063 70.2434212,58.7594938 C70.2434212,55.7784812 72.1402017,53.5 75.0511027,53.5 C76.4596032,53.5 77.5864037,53.9936711 78.187364,54.7151899 L78.187364,53.7848103 L81.1546052,53.7848103 L81.1546052,63.7531647 L78.2437042,63.7531647 L78.2437042,62.6898734 L78.2249242,62.6898734 C77.6427439,63.3924053 76.4596032,64 74.9759829,64 Z M75.8655603,61.55 C77.4325847,61.55 78.3388156,60.4663702 78.3388156,58.9343415 C78.3388156,57.4583631 77.4325847,56.3 75.8655603,56.3 C74.3174153,56.3 73.4111844,57.4583631 73.4111844,58.9343415 C73.4111844,60.4663702 74.2985354,61.55 75.8655603,61.55 Z M83.2853633,63.65 L83.2853633,55.3539666 C83.2853633,54.8483396 83.2853633,54.3427121 83.2664472,53.8183578 L86.2740994,53.8183578 L86.2740994,54.7734317 C86.8794132,54.0805349 87.8819643,53.5 89.3385002,53.5 C91.6651745,53.5 93.1217104,55.0356088 93.1217104,57.5637454 L93.1217104,63.65 L90.0573101,63.65 L90.0573101,58.2191883 C90.0573101,57.0019373 89.4330806,56.0281366 88.2035369,56.0281366 C86.9172455,56.0281366 86.3497637,57.020664 86.3497637,57.9757379 L86.3497637,63.65 L83.2853633,63.65 Z M99.8998304,64 C96.6434175,64 94.5296052,61.6960432 94.5296052,58.7877698 C94.5296052,55.6528776 96.8148073,53.5 99.9950474,53.5 C102.299293,53.5 103.956065,54.6519786 104.717799,56.2571941 L102.108859,57.4469426 C101.766079,56.6537769 101.080519,56.0872302 99.9950474,56.0872302 C98.5096658,56.0872302 97.5765417,57.201439 97.5765417,58.75 C97.5765417,60.2796763 98.4525359,61.3938847 99.9950474,61.3938847 C101.080519,61.3938847 101.785123,60.8273379 102.146946,60.0341728 L104.736842,61.2616906 C103.917978,62.8291367 102.146946,64 99.8998304,64 Z M110.873427,64 C107.698012,64 105.44079,62.0170864 105.44079,58.6933455 C105.44079,55.6717627 107.621496,53.5 110.777782,53.5 C114.029713,53.5 115.866097,55.6906474 115.866097,58.7122302 C115.866097,58.9577338 115.866097,59.2598923 115.846968,59.5431656 L108.367527,59.5431656 C108.539688,60.7895686 109.515267,61.6205036 111.026459,61.6205036 C112.633295,61.6205036 113.589745,60.7140289 114.163615,60.0908273 L116,61.7715828 C115.100937,62.810252 113.398455,64 110.873427,64 Z M108.608553,57.35 L113.18421,57.35 C113.086856,56.2757424 112.249608,55.6 110.945059,55.6 C109.621039,55.6 108.744849,56.2584156 108.608553,57.35 Z"/>
  </g>
</svg>
